<svg xmlns="http://www.w3.org/2000/svg" viewBox="0 0 1774 887">
  <defs><linearGradient id="bg" x1="0" y1="0" x2="1" y2="1"><stop stop-color="#fbfaf8"/><stop offset="1" stop-color="#f3eee9"/></linearGradient><filter id="s"><feDropShadow dy="14" stdDeviation="18" flood-color="#8f8077" flood-opacity=".12"/></filter></defs><rect width="1774" height="887" fill="url(#bg)"/>
  <g filter="url(#s)"><rect x="172" y="161" width="256" height="180" rx="32" fill="#fffdfb" stroke="#ddd4ce" stroke-width="5"/><text x="225" y="284" font-family="Georgia,serif" font-size="112" fill="#7f7773">Aa</text><rect x="492" y="150" width="226" height="202" rx="32" fill="#fffdfb" stroke="#ddd4ce" stroke-width="5"/><circle cx="552" cy="221" r="29" fill="#d7e3e6"/><circle cx="632" cy="221" r="29" fill="#efd2bd"/><circle cx="592" cy="286" r="29" fill="#dcd4e6"/><rect x="205" y="430" width="225" height="172" rx="31" fill="#e9dfd8" stroke="#d6cbc4" stroke-width="5"/><rect x="249" y="474" width="137" height="42" rx="21" fill="#fffdfb"/><path d="M521 439h145l42 42v135H521z" fill="#fffdfb" stroke="#ddd4ce" stroke-width="5"/><path d="M666 439v42h42" fill="#f0ded1"/></g>
  <g fill="none" stroke="#cfc2ba" stroke-width="7" stroke-linecap="round" stroke-dasharray="13 16"><path d="M455 287C715 287 737 343 905 385"/><path d="M456 515C698 515 757 465 905 427"/></g>
  <g filter="url(#s)"><path d="M922 221h126l38 58h392v368H922z" fill="#fffdfb" stroke="#d8cec8" stroke-width="5"/><path d="M994 345h412M994 481h412" stroke="#e3dad4" stroke-width="5"/><rect x="994" y="311" width="112" height="74" rx="20" fill="#dce5e6"/><rect x="1130" y="311" width="112" height="74" rx="20" fill="#efd9c8"/><rect x="1266" y="311" width="140" height="74" rx="20" fill="#eee7e2"/><rect x="994" y="447" width="180" height="74" rx="20" fill="#e8dfd9"/><rect x="1198" y="447" width="208" height="74" rx="20" fill="#dcd5e7"/></g>
</svg>
