<svg xmlns="http://www.w3.org/2000/svg" viewBox="0 0 1774 887">
  <defs><linearGradient id="bg" x1="0" y1="0" x2="1" y2="1"><stop stop-color="#fbfaf8"/><stop offset="1" stop-color="#f4eee9"/></linearGradient><filter id="s"><feDropShadow dy="14" stdDeviation="18" flood-color="#8d7e76" flood-opacity=".12"/></filter></defs><rect width="1774" height="887" fill="url(#bg)"/>
  <g filter="url(#s)"><circle cx="298" cy="220" r="106" fill="#fffdfb" stroke="#ddd4ce" stroke-width="5"/><circle cx="266" cy="185" r="33" fill="#d9e4e7"/><circle cx="330" cy="185" r="33" fill="#ecd2bf"/><circle cx="266" cy="249" r="33" fill="#ded6e7"/><circle cx="330" cy="249" r="33" fill="#e8dfd8"/><rect x="179" y="451" width="342" height="202" rx="34" fill="#383432" stroke="#56504d" stroke-width="5"/><path d="m248 524-39 31 39 31M451 524l39 31-39 31M317 590l54-72" fill="none" stroke="#e8dfd8" stroke-width="13" stroke-linecap="round" stroke-linejoin="round"/></g>
  <g fill="none" stroke-width="8" stroke-linecap="round"><path d="M425 220C680 220 674 340 848 366" stroke="#c9d8db"/><path d="M525 552C687 552 721 456 848 420" stroke="#d7bba8"/></g>
  <g filter="url(#s)"><path d="M884 209h202l47 72h346v349c0 31-25 56-56 56H940c-31 0-56-25-56-56z" fill="#fffdfb" stroke="#d7cec8" stroke-width="5"/><rect x="958" y="341" width="443" height="54" rx="18" fill="#eee5df"/><rect x="958" y="436" width="204" height="158" rx="25" fill="#e5ddda"/><rect x="1185" y="436" width="216" height="158" rx="25" fill="#f0dfd2"/></g>
</svg>
